<svg xmlns="http://www.w3.org/2000/svg" width="92" height="92" viewBox="0 0 92 92"><g><g><path fill="#f1f1f1" d="M66.984 41.156c2.218 0 4.016 1.91 4.016 4.266s-1.798 4.265-4.016 4.265-4.015-1.91-4.015-4.265c0-2.356 1.797-4.266 4.015-4.266zM4 20.875c2.209 0 4 1.903 4 4.25s-1.791 4.25-4 4.25c-2.21 0-4-1.903-4-4.25s1.79-4.25 4-4.25zm21.015 0c2.218 0 4.016 1.903 4.016 4.25s-1.798 4.25-4.015 4.25c-2.218 0-4.016-1.903-4.016-4.25s1.798-4.25 4.016-4.25zm20.985 0c2.209 0 4 1.903 4 4.25s-1.791 4.25-4 4.25c-2.21 0-4-1.903-4-4.25s1.79-4.25 4-4.25zm20.984 0c2.218 0 4.016 1.903 4.016 4.25s-1.798 4.25-4.016 4.25-4.015-1.903-4.015-4.25 1.797-4.25 4.015-4.25zm21.016 0c2.209 0 4 1.903 4 4.25s-1.791 4.25-4 4.25c-2.21 0-4-1.903-4-4.25s1.79-4.25 4-4.25zM4 41.156c2.209 0 4 1.91 4 4.266s-1.791 4.265-4 4.265c-2.21 0-4-1.91-4-4.265 0-2.356 1.79-4.266 4-4.266zm21.015 0c2.218 0 4.016 1.91 4.016 4.266s-1.798 4.265-4.015 4.265c-2.218 0-4.016-1.91-4.016-4.265 0-2.356 1.798-4.266 4.016-4.266zm20.985 0c2.209 0 4 1.91 4 4.266s-1.791 4.265-4 4.265c-2.21 0-4-1.91-4-4.265 0-2.356 1.79-4.266 4-4.266zm42 0c2.209 0 4 1.91 4 4.266s-1.791 4.265-4 4.265c-2.21 0-4-1.91-4-4.265 0-2.356 1.79-4.266 4-4.266zM4 61.406c2.209 0 4 1.917 4 4.281 0 2.365-1.791 4.282-4 4.282-2.21 0-4-1.917-4-4.282 0-2.364 1.79-4.28 4-4.28zm21.015 0c2.218 0 4.016 1.917 4.016 4.281 0 2.365-1.798 4.282-4.015 4.282-2.218 0-4.016-1.917-4.016-4.282 0-2.364 1.798-4.28 4.016-4.28zm20.985 0c2.209 0 4 1.917 4 4.281 0 2.365-1.791 4.282-4 4.282-2.21 0-4-1.917-4-4.282 0-2.364 1.79-4.28 4-4.28zm20.984 0c2.218 0 4.016 1.917 4.016 4.281 0 2.365-1.798 4.282-4.016 4.282s-4.015-1.917-4.015-4.282c0-2.364 1.797-4.28 4.015-4.28zm21.016 0c2.209 0 4 1.917 4 4.281 0 2.365-1.791 4.282-4 4.282-2.21 0-4-1.917-4-4.282 0-2.364 1.79-4.28 4-4.28zM4 83.47c2.209 0 4 1.91 4 4.265C8 90.09 6.209 92 4 92c-2.21 0-4-1.91-4-4.266s1.79-4.265 4-4.265zm21.015 0c2.218 0 4.016 1.91 4.016 4.265 0 2.356-1.798 4.266-4.015 4.266C22.798 92 21 90.09 21 87.734s1.798-4.265 4.016-4.265zm20.985 0c2.209 0 4 1.91 4 4.265C50 90.09 48.209 92 46 92c-2.21 0-4-1.91-4-4.266s1.79-4.265 4-4.265zm20.984 0c2.218 0 4.016 1.91 4.016 4.265C71 90.09 69.202 92 66.984 92s-4.015-1.91-4.015-4.266 1.797-4.265 4.015-4.265zm21.016 0c2.209 0 4 1.91 4 4.265C92 90.09 90.209 92 88 92c-2.21 0-4-1.91-4-4.266s1.79-4.265 4-4.265zM4-.001c2.209 0 4 1.91 4 4.267C8 6.62 6.209 8.53 4 8.53c-2.21 0-4-1.91-4-4.265C0 1.91 1.79 0 4 0zm21.015 0c2.218 0 4.016 1.91 4.016 4.267 0 2.355-1.798 4.265-4.015 4.265-2.218 0-4.016-1.91-4.016-4.265C21 1.91 22.798 0 25.016 0zM46 0c2.209 0 4 1.91 4 4.267 0 2.355-1.791 4.265-4 4.265-2.21 0-4-1.91-4-4.265C42 1.91 43.79 0 46 0zm20.984 0C69.202 0 71 1.91 71 4.267c0 2.355-1.798 4.265-4.016 4.265s-4.015-1.91-4.015-4.265C62.969 1.91 64.766 0 66.984 0zM88 0c2.209 0 4 1.91 4 4.267 0 2.355-1.791 4.265-4 4.265-2.21 0-4-1.91-4-4.265C84 1.91 85.79 0 88 0z"/></g></g></svg>